<svg width="35" height="35" viewBox="0 0 35 35" fill="none" xmlns="http://www.w3.org/2000/svg">
<path d="M34.4121 17.7498C34.4121 8.22707 26.7811 0.507812 17.3681 0.507812C7.9551 0.507812 0.324219 8.22721 0.324219 17.7498C0.324219 26.3557 6.55707 33.4887 14.7051 34.782V22.7337H10.3774V17.7498H14.7051V13.9513C14.7051 9.63006 17.2499 7.2429 21.1429 7.2429C23.0075 7.2429 24.9582 7.57958 24.9582 7.57958V11.8228H22.8088C20.6916 11.8228 20.0313 13.1518 20.0313 14.5154V17.7497H24.7584L24.0027 22.7336H20.0313V34.7819C28.1794 33.4886 34.4122 26.3556 34.4122 17.7497L34.4121 17.7498Z" fill="white"/>
</svg>
