<svg width="35" height="35" viewBox="0 0 35 35" fill="none" xmlns="http://www.w3.org/2000/svg">
<path d="M17.9064 0.270508C27.3196 0.270508 34.9503 7.98991 34.9503 17.5124C34.9503 27.0349 27.3194 34.7543 17.9064 34.7543C8.49331 34.7543 0.862427 27.0348 0.862427 17.5124C0.862427 7.98977 8.49344 0.270508 17.9064 0.270508Z" fill="white"/>
<path d="M17.9065 6.65625C14.9919 6.65625 14.6265 6.66891 13.4819 6.72174C12.3398 6.77444 11.5596 6.95784 10.8769 7.22628C10.1713 7.50379 9.57275 7.87473 8.97622 8.47847C8.37955 9.08207 8.0126 9.68746 7.73841 10.4014C7.47319 11.0917 7.29162 11.881 7.23967 13.0364C7.1873 14.1946 7.17493 14.5639 7.17493 17.5124C7.17493 20.4606 7.18717 20.8305 7.23967 21.9884C7.29162 23.1437 7.47319 23.9331 7.73841 24.6234C8.0126 25.3373 8.37942 25.9427 8.97622 26.546C9.57275 27.1496 10.1713 27.5208 10.8769 27.7985C11.5596 28.0668 12.3398 28.2505 13.4819 28.303C14.6265 28.3559 14.9919 28.3685 17.9065 28.3685C20.8209 28.3685 21.1862 28.3559 22.3309 28.303C23.4732 28.2505 24.2533 28.0668 24.936 27.7985C25.6417 27.5208 26.2402 27.1496 26.8368 26.546C27.4332 25.9427 27.8003 25.3373 28.0746 24.6234C28.3397 23.9331 28.5213 23.1436 28.5734 21.9884C28.6256 20.8305 28.6381 20.4606 28.6381 17.5124C28.6381 14.5641 28.6256 14.1946 28.5734 13.0364C28.5213 11.8809 28.3397 11.0917 28.0746 10.4014C27.8003 9.68746 27.4332 9.08207 26.8368 8.47847C26.2402 7.87487 25.6417 7.50379 24.936 7.22628C24.2533 6.95784 23.4732 6.77444 22.3309 6.72174C21.1862 6.66891 20.8209 6.65625 17.9065 6.65625ZM17.9065 8.61248C20.7718 8.61248 21.1113 8.62335 22.243 8.6755C23.2892 8.7242 23.8573 8.90087 24.2355 9.0496C24.7364 9.24649 25.0941 9.4819 25.4695 9.86151C25.845 10.2414 26.0775 10.6031 26.2721 11.1096C26.4191 11.4923 26.5938 12.0671 26.6419 13.1255C26.6933 14.2704 26.7042 14.6138 26.7042 17.5124C26.7042 20.4111 26.6933 20.7544 26.6419 21.8993C26.5938 22.9576 26.4191 23.5326 26.2721 23.9149C26.0775 24.4217 25.8449 24.7835 25.4695 25.1633C25.094 25.5431 24.7364 25.7783 24.2355 25.9752C23.8573 26.1239 23.2892 26.3008 22.243 26.349C21.1113 26.4014 20.7721 26.4124 17.9065 26.4124C15.0407 26.4124 14.7015 26.4014 13.57 26.349C12.5239 26.301 11.9555 26.1239 11.5774 25.9752C11.0766 25.7783 10.7189 25.543 10.3435 25.1633C9.96799 24.7834 9.73555 24.4217 9.54079 23.9149C9.39376 23.5326 9.21913 22.9576 9.17112 21.8993C9.11957 20.7544 9.10869 20.4111 9.10869 17.5124C9.10869 14.6138 9.11957 14.2704 9.17112 13.1255C9.219 12.0671 9.39376 11.4923 9.54079 11.1096C9.73555 10.6031 9.96772 10.2413 10.3435 9.86151C10.719 9.48176 11.0766 9.24649 11.5774 9.0496C11.9555 8.90087 12.5239 8.7242 13.57 8.6755C14.7018 8.62335 15.0411 8.61248 17.9065 8.61248Z" fill="#283752"/>
<path d="M17.9064 21.1319C15.9309 21.1319 14.3291 19.5116 14.3291 17.513C14.3291 15.5145 15.9307 13.8942 17.9064 13.8942C19.8819 13.8942 21.4837 15.5144 21.4837 17.513C21.4837 19.5115 19.8821 21.1319 17.9064 21.1319ZM17.9064 11.9385C14.8629 11.9385 12.3958 14.4343 12.3958 17.5131C12.3958 20.592 14.8628 23.088 17.9064 23.088C20.9497 23.088 23.417 20.5921 23.417 17.5131C23.417 14.4345 20.9499 11.9385 17.9064 11.9385Z" fill="#283752"/>
<path d="M24.9224 11.7167C24.9224 12.4363 24.3458 13.0194 23.6348 13.0194C22.9235 13.0194 22.3469 12.4363 22.3469 11.7167C22.3469 10.9972 22.9235 10.4141 23.6348 10.4141C24.3458 10.4141 24.9224 10.9972 24.9224 11.7167Z" fill="#283752"/>
</svg>
