<svg width="35" height="36" viewBox="0 0 35 36" fill="none" xmlns="http://www.w3.org/2000/svg">
<path d="M34.862 18.0231C34.862 27.5456 27.231 35.2652 17.818 35.2652C8.40491 35.2652 0.77417 27.5455 0.77417 18.0231C0.77417 8.50065 8.40504 0.78125 17.818 0.78125C27.2312 0.78125 34.862 8.50078 34.862 18.0231Z" fill="white"/>
<path d="M27.3689 12.3253C27.3691 12.2252 27.3661 12.2215 27.2625 12.2224C27.0128 12.2248 26.7658 12.1945 26.5204 12.1569C25.6286 12.0207 22.7362 10.4858 22.2468 7.97494C22.2369 7.92582 22.1279 7.30296 22.1291 7.03755C22.13 6.91881 22.1276 6.91854 22.0119 6.91689C21.9851 6.91633 21.9585 6.91689 21.9317 6.91689C20.7999 6.91689 19.6681 6.91606 18.5361 6.91702C18.3081 6.9173 18.3402 6.88854 18.3402 7.11983C18.3395 12.0855 18.3396 17.0515 18.3405 22.0173C18.3405 22.2027 18.3352 22.3875 18.3031 22.5692C18.1324 23.5299 17.6458 24.2822 16.8224 24.7958C16.109 25.2408 15.3346 25.3678 14.5126 25.2032C14.2535 25.1513 14.0103 25.0525 13.7668 24.955C13.7468 24.9366 13.7272 24.9185 13.7074 24.9002C13.6255 24.8308 13.5355 24.7735 13.4475 24.712C12.3995 23.9778 11.9028 22.959 12.0539 21.6845C12.2075 20.3919 12.9429 19.5141 14.1542 19.0619C14.5155 18.927 14.8962 18.8714 15.2825 18.8924C15.5312 18.9056 15.7791 18.9376 16.0202 19.0071C16.1034 19.0311 16.1487 19.0011 16.1529 18.9118C16.1546 18.8802 16.1552 18.8487 16.1552 18.8172C16.1555 17.9259 16.1225 15.9786 16.1178 15.9743C16.1196 15.7177 16.1196 15.4608 16.1241 15.2045C16.1257 15.1304 16.0893 15.1176 16.0277 15.1101C15.5712 15.0552 15.1147 15.0451 14.6552 15.079C14.0207 15.1261 13.4058 15.2575 12.8082 15.4753C11.8547 15.8222 11.0179 16.3583 10.2955 17.0743C9.675 17.6891 9.18755 18.4 8.82998 19.2015C8.48751 19.9682 8.29153 20.7734 8.2374 21.6112C8.21374 21.9747 8.21823 22.3394 8.25155 22.7041C8.29766 23.208 8.39191 23.7012 8.54342 24.1826C8.97906 25.5663 9.77049 26.7014 10.8935 27.6019C11.0078 27.6936 11.1172 27.794 11.2541 27.8536C11.3115 27.9049 11.3687 27.9565 11.4261 28.0077C11.6078 28.1465 11.8026 28.2651 12.0061 28.3666C13.264 28.9953 14.5893 29.2506 15.9859 29.0782C17.7982 28.8541 19.3082 28.0419 20.4968 26.6421C21.6156 25.3247 22.1592 23.7779 22.1691 22.0491C22.1833 19.576 22.1724 17.103 22.1739 14.6297C22.1739 14.5707 22.1404 14.487 22.2046 14.4573C22.2548 14.4342 22.3056 14.5014 22.3528 14.5328C23.2626 15.1375 24.2437 15.5745 25.3062 15.8206C25.9246 15.9636 26.5493 16.0506 27.1853 16.0493C27.386 16.0492 27.4125 16.0389 27.4128 15.8378C27.414 14.9595 27.3683 12.5587 27.3686 12.3255L27.3689 12.3253Z" fill="#283752"/>
</svg>
