<svg width="35" height="36" viewBox="0 0 35 36" fill="none" xmlns="http://www.w3.org/2000/svg">
<path d="M34.3635 17.8522C34.3635 27.3747 26.7326 35.0943 17.3196 35.0943C7.90651 35.0943 0.275635 27.3746 0.275635 17.8522C0.275635 8.32961 7.90664 0.610352 17.3196 0.610352C26.7328 0.610352 34.3635 8.32975 34.3635 17.8522Z" fill="white"/>
<path fill-rule="evenodd" clip-rule="evenodd" d="M22.7995 19.787C22.5294 19.6502 21.2011 18.9892 20.9535 18.898C20.7058 18.8069 20.5257 18.7614 20.3455 19.0349C20.1658 19.3082 19.6479 19.9237 19.4903 20.1062C19.3328 20.2883 19.1751 20.3113 18.905 20.1744C18.6349 20.0378 17.7646 19.7494 16.7326 18.8183C15.9294 18.0941 15.3872 17.1993 15.2297 16.9258C15.0722 16.6524 15.2128 16.5044 15.348 16.3682C15.4695 16.2458 15.6183 16.0491 15.7534 15.8895C15.8885 15.7303 15.9335 15.6161 16.0233 15.4338C16.1137 15.2515 16.0684 15.0919 16.0008 14.9551C15.9334 14.8184 15.3932 13.4737 15.1681 12.9265C14.9487 12.3939 14.7262 12.466 14.5601 12.4576C14.4029 12.4496 14.2225 12.4481 14.0426 12.4481C13.8625 12.4481 13.57 12.5164 13.3222 12.7899C13.0745 13.0634 12.3766 13.7243 12.3766 15.0692C12.3766 16.4137 13.3446 17.713 13.4799 17.8953C13.615 18.0777 15.3849 20.8373 18.0948 22.0208C18.7395 22.3022 19.2427 22.4703 19.6351 22.5962C20.2822 22.8043 20.8713 22.7748 21.3367 22.7045C21.8556 22.6262 22.9351 22.0435 23.1603 21.4051C23.3855 20.767 23.3855 20.2201 23.3178 20.1062C23.2501 19.9922 23.0701 19.9237 22.7999 19.787H22.7995ZM17.8701 26.5936H17.8663C16.254 26.593 14.6725 26.1548 13.2926 25.3268L12.9643 25.1297L9.56303 26.0321L10.4712 22.6784L10.2572 22.3345C9.35765 20.8875 8.88244 19.2153 8.8834 17.4979C8.88544 12.4869 12.9169 8.41033 17.8737 8.41033C20.2739 8.41129 22.5307 9.3579 24.2273 11.0754C25.9239 12.7935 26.8577 15.0768 26.8572 17.5052C26.8548 22.5166 22.8234 26.5935 17.8704 26.5935L17.8701 26.5936ZM25.5184 9.77039C23.4772 7.7034 20.7622 6.56458 17.8701 6.56348C11.9103 6.56348 7.06007 11.4684 7.05776 17.4974C7.05694 19.4246 7.55487 21.3055 8.50108 22.9639L6.96704 28.63L12.6987 27.1094C14.278 27.9808 16.0562 28.4398 17.8655 28.4404H17.8701C17.8705 28.4404 17.8699 28.4404 17.8701 28.4404C23.8289 28.4404 28.6798 23.535 28.6823 17.5062C28.6833 14.5845 27.5599 11.837 25.5184 9.77066V9.77039Z" fill="#283752"/>
</svg>
