<svg width="35" height="35" viewBox="0 0 35 35" fill="none" xmlns="http://www.w3.org/2000/svg">
<path fill-rule="evenodd" clip-rule="evenodd" d="M34.6003 17.6931C34.6003 27.2156 26.9696 34.935 17.5563 34.935C8.14305 34.935 0.512451 27.2154 0.512451 17.6931C0.512451 8.17043 8.14319 0.451172 17.5563 0.451172C26.9697 0.451172 34.6003 8.17057 34.6003 17.6931Z" fill="white"/>
<path fill-rule="evenodd" clip-rule="evenodd" d="M22.3158 26.3588L19.0051 22.2111C16.9015 19.482 14.4915 16.6232 12.3672 13.8941C11.9641 13.3764 9.17482 9.92472 9.09375 9.71407L11.8184 9.71916L13.4651 11.7955C15.0712 13.7746 16.856 16.1461 18.4373 18.0373C19.01 18.7223 19.5444 19.4245 20.0956 20.1171C20.64 20.8012 24.7324 25.8569 25.0296 26.3602L22.3159 26.3587L22.3158 26.3588ZM27.4954 8.66207L27.4588 8.52036L26.0643 8.53783C25.9297 8.70706 25.7095 8.97316 25.4934 9.07621C25.4211 9.10648 25.483 9.06232 25.3945 9.13909L20.4439 14.5386C20.1514 14.8666 18.9569 16.2132 18.7264 16.3517C18.4432 16.0537 18.1852 15.6883 17.9378 15.3791C17.3153 14.6015 12.5043 8.48169 12.3401 8.43945L6.44336 8.43959L8.71402 11.3281C9.46764 12.2846 10.2207 13.2197 10.9813 14.1765L14.9673 19.1762C15.1238 19.3675 15.4317 19.7144 15.5245 19.9215C15.2504 20.1826 14.8921 20.5703 14.6414 20.8659L8.41833 27.7007C8.72694 27.7054 9.03459 27.702 9.34319 27.705C10.0555 27.7113 9.98325 27.7732 10.9836 26.5892C11.6436 25.8081 13.0211 24.4611 13.628 23.7274L16.3154 20.889C17.0177 21.6841 17.6717 22.5827 18.337 23.4118L21.3378 27.1672C21.8262 27.7926 21.5858 27.6414 23.158 27.6414C24.6536 27.6414 26.1871 27.6749 27.6781 27.6359L19.5512 17.3501C19.6975 17.1205 19.8705 17.0157 20.0279 16.8206C20.2016 16.605 20.3204 16.4482 20.5212 16.2647L24.0224 12.4866C24.1969 12.2806 24.3382 12.1476 24.5267 11.9448C24.7165 11.7405 24.8422 11.6118 25.0214 11.3891L26.5474 9.76911C26.7387 9.54759 27.4572 8.79925 27.4958 8.66235L27.4954 8.66207Z" fill="#283752"/>
<path fill-rule="evenodd" clip-rule="evenodd" d="M25.4933 9.07613C25.7094 8.97307 25.9296 8.70698 26.0643 8.53774L27.4587 8.52027L27.4953 8.66199C27.626 8.59223 27.552 8.67093 27.6791 8.53816C27.7369 8.47762 27.7412 8.44556 27.7755 8.38736C26.2276 8.36535 26.2684 8.20079 25.7898 8.6723C25.6168 8.84264 25.5873 8.84746 25.4933 9.07613Z" fill="#283752"/>
</svg>
