<svg width="35" height="35" viewBox="0 0 35 35" fill="none" xmlns="http://www.w3.org/2000/svg">
<path d="M34.5571 17.4499C34.5571 26.9724 26.9262 34.6919 17.5132 34.6919C8.10011 34.6919 0.46936 26.9723 0.46936 17.4499C0.46936 7.92741 8.10024 0.208008 17.5132 0.208008C26.9264 0.208008 34.5571 7.92754 34.5571 17.4499Z" fill="white"/>
<path d="M15.2411 20.898V14.0011L21.1453 17.4495L15.2411 20.8979V20.898ZM28.4013 11.9164C28.14 10.9274 27.3702 10.1482 26.392 9.88378C24.6201 9.40332 17.5136 9.40332 17.5136 9.40332C17.5136 9.40332 10.4071 9.40332 8.63481 9.88378C7.65718 10.1481 6.8871 10.9274 6.62583 11.9164C6.15089 13.709 6.15088 17.4496 6.15088 17.4496C6.15088 17.4496 6.15089 21.1902 6.62583 22.983C6.88697 23.9723 7.65718 24.751 8.63481 25.0155C10.4071 25.4961 17.5136 25.4961 17.5136 25.4961C17.5136 25.4961 24.6201 25.4961 26.392 25.0155C27.3701 24.7512 28.1399 23.9724 28.4013 22.983C28.8762 21.1904 28.8762 17.4496 28.8762 17.4496C28.8762 17.4496 28.8762 13.7091 28.4013 11.9164Z" fill="#283752"/>
</svg>
